<?xml version="1.0" standalone="no"?>
<!DOCTYPE svg PUBLIC "-//W3C//DTD SVG 20010904//EN"
 "http://www.w3.org/TR/2001/REC-SVG-20010904/DTD/svg10.dtd">
<svg version="1.0" xmlns="http://www.w3.org/2000/svg"
 width="600.000000pt" height="600.000000pt" viewBox="0 0 600.000000 600.000000"
 preserveAspectRatio="xMidYMid meet">
<metadata>
Created by potrace 1.14, written by Peter Selinger 2001-2017
</metadata>
<g transform="translate(0.000000,600.000000) scale(0.100000,-0.100000)"
fill="#000000" stroke="none">
<path d="M623 5290 c-55 -33 -66 -75 -60 -225 10 -224 63 -464 182 -815 169
-504 261 -708 575 -1280 62 -113 137 -259 168 -325 30 -66 63 -132 73 -146 17
-25 17 -27 -2 -88 -31 -103 -57 -248 -70 -391 -15 -183 1 -640 29 -790 11 -58
25 -139 32 -180 15 -86 98 -381 165 -585 44 -132 94 -315 112 -415 l9 -45
1631 -3 1630 -2 6 37 c51 330 18 918 -73 1301 -38 156 -128 427 -220 658 -71
179 -286 626 -355 739 l-37 60 -9 310 c-4 171 -13 371 -19 445 -41 516 -88
854 -160 1140 -25 101 -29 131 -27 245 1 108 -1 136 -16 163 -31 57 -105 69
-156 27 -52 -45 -80 -167 -136 -610 -20 -154 -51 -388 -70 -520 -19 -132 -39
-280 -45 -330 -5 -49 -12 -104 -15 -121 l-6 -32 -99 58 c-172 99 -387 174
-578 201 -123 17 -367 7 -467 -20 -267 -71 -477 -242 -691 -563 -42 -62 -80
-114 -85 -116 -5 -2 -13 8 -19 23 -14 37 -83 142 -213 324 -60 85 -123 177
-140 205 -70 119 -458 910 -534 1091 -14 33 -49 143 -78 245 -69 241 -89 294
-126 325 -37 30 -63 32 -106 5z m2841 -2361 c64 -18 136 -99 194 -220 69 -141
86 -220 80 -356 -10 -210 -75 -340 -181 -363 -123 -28 -229 51 -322 239 -45
90 -63 169 -71 301 -6 88 -3 118 15 189 29 116 58 163 123 195 56 28 100 32
162 15z m-1044 -608 c49 -34 113 -162 147 -295 18 -70 13 -160 -9 -182 -14
-14 -16 -11 -20 23 -8 57 -53 149 -82 168 -33 22 -70 13 -93 -21 -19 -29 -25
-97 -12 -131 21 -57 -38 4 -75 76 -37 71 -56 146 -56 225 l0 79 40 38 c54 52
105 58 160 20z m1159 -1596 l31 -29 -62 -63 c-67 -68 -127 -98 -215 -107 -28
-3 -82 -18 -120 -34 -37 -16 -108 -36 -158 -46 -49 -10 -112 -23 -140 -31 -97
-26 -103 -26 -109 -8 -7 22 -31 167 -41 243 l-7 54 44 -45 c76 -79 171 -91
232 -29 l31 31 -3 122 -2 122 57 -101 c68 -117 78 -132 117 -162 59 -46 162
-21 207 50 18 30 20 43 14 148 l-6 115 49 -100 c27 -55 63 -113 81 -130z"/>
<path d="M3432 2703 c-30 -25 -41 -104 -31 -219 9 -108 35 -174 82 -208 26
-19 30 -19 55 -6 41 24 66 115 52 194 -17 96 -58 221 -78 239 -24 22 -54 22
-80 0z"/>
</g>
</svg>
